HIERARCHY
ROOT Hips
{
 OFFSET 0.000000 0.000000 0.000000
 CHANNELS 6 Xposition Yposition Zposition Yrotation Xrotation Zrotation
 JOINT Chest
 {
  OFFSET 0.000000 9.581000 -0.001100
  CHANNELS 3 Yrotation Xrotation Zrotation
  JOINT Chest2
  {
   OFFSET 0.000000 9.561100 0.002200
   CHANNELS 3 Yrotation Xrotation Zrotation
   JOINT Chest3
   {
    OFFSET 0.000000 9.521100 0.000000
    CHANNELS 3 Yrotation Xrotation Zrotation
    JOINT Chest4
    {
     OFFSET 0.000000 9.511400 0.000000
     CHANNELS 3 Yrotation Xrotation Zrotation
     JOINT Neck
     {
      OFFSET 0.000000 14.375100 0.000000
      CHANNELS 3 Yrotation Xrotation Zrotation
      JOINT Head
      {
       OFFSET 0.000000 8.901200 0.004600
       CHANNELS 3 Yrotation Xrotation Zrotation
       End Site
       {
        OFFSET 0.000000 16.962200 0.002400
       }
      }
     }
     JOINT RightCollar
     {
      OFFSET -2.920100 9.518800 0.000000
      CHANNELS 3 Yrotation Xrotation Zrotation
      JOINT RightShoulder
      {
       OFFSET -13.664500 0.000000 0.000000
       CHANNELS 3 Yrotation Xrotation Zrotation
       JOINT RightElbow
       {
        OFFSET 0.000000 -29.999200 0.000000
        CHANNELS 3 Yrotation Xrotation Zrotation
        JOINT RightWrist
        {
         OFFSET 0.000000 -24.253600 0.000000
         CHANNELS 3 Yrotation Xrotation Zrotation
         End Site
         {
          OFFSET 0.000000 -17.918900 0.000000
         }
        }
       }
      }
     }
     JOINT LeftCollar
     {
      OFFSET 2.920100 9.518800 0.000000
      CHANNELS 3 Yrotation Xrotation Zrotation
      JOINT LeftShoulder
      {
       OFFSET 13.664500 0.000000 0.000000
       CHANNELS 3 Yrotation Xrotation Zrotation
       JOINT LeftElbow
       {
        OFFSET 0.000000 -29.999200 0.000000
        CHANNELS 3 Yrotation Xrotation Zrotation
        JOINT LeftWrist
        {
         OFFSET 0.000000 -24.253600 0.000000
         CHANNELS 3 Yrotation Xrotation Zrotation
         End Site
         {
          OFFSET 0.000000 -17.918900 0.000000
         }
        }
       }
      }
     }
    }
   }
  }
 }
 JOINT RightHip
 {
  OFFSET -7.797300 0.005300 0.000500
  CHANNELS 3 Yrotation Xrotation Zrotation
  JOINT RightKnee
  {
   OFFSET 0.000000 -40.663400 -0.000500
   CHANNELS 3 Yrotation Xrotation Zrotation
   JOINT RightAnkle
   {
    OFFSET 0.000000 -39.523700 -0.000900
    CHANNELS 3 Yrotation Xrotation Zrotation
    JOINT RightToe
    {
     OFFSET 0.000000 -6.418000 14.485300
     CHANNELS 3 Yrotation Xrotation Zrotation
     End Site
     {
      OFFSET 0.000000 -1.465200 6.326400
     }
    }
   }
  }
 }
 JOINT LeftHip
 {
  OFFSET 7.797300 0.005300 0.000500
  CHANNELS 3 Yrotation Xrotation Zrotation
  JOINT LeftKnee
  {
   OFFSET 0.000000 -40.663400 -0.000500
   CHANNELS 3 Yrotation Xrotation Zrotation
   JOINT LeftAnkle
   {
    OFFSET 0.000000 -39.523700 -0.000900
    CHANNELS 3 Yrotation Xrotation Zrotation
    JOINT LeftToe
    {
     OFFSET 0.000000 -6.418000 14.485300
     CHANNELS 3 Yrotation Xrotation Zrotation
     End Site
     {
      OFFSET 0.000000 -1.465200 6.326400
     }
    }
   }
  }
 }
}
MOTION
Frames: 8
Frame Time: 0.008333
-2.202622 125.981176 19.972274 -169.566827 -19.969195 -0.456153 -2.890759 23.253131 0.669053 -0.428128 3.414187 0.168589 -0.702527 5.514018 0.264072 -2.406024 19.502199 0.634023 -1.641140 9.414860 -1.184145 -1.462975 -15.757731 -0.924996 -0.011881 -7.391501 0.822623 16.956702 -21.369186 -6.868354 -149.285139 -55.197282 171.526344 -10.734317 -15.186166 -30.898279 -11.084467 -8.969847 -0.826414 -21.672525 -30.632809 11.381600 148.374127 -71.874106 -169.727412 -16.560831 -28.095495 46.140731 -16.126197 -67.181814 7.682908 -40.702210 68.545562 -42.492099 27.233017 34.878528 18.424586 -0.001728 -0.003705 -0.000766 -11.469887 -57.058668 -10.721084 27.076724 77.008598 17.712539 0.677219 -1.126103 6.370686 0.003066 0.000682 0.001359
-2.203683 125.981610 19.969963 -169.567988 -19.959307 -0.458112 -2.909816 23.253217 0.668125 -0.413014 3.407024 0.164289 -0.716419 5.517347 0.268582 -2.404598 19.499175 0.630199 -1.630458 9.402129 -1.203617 -1.424265 -15.783816 -1.005701 0.028605 -7.493987 0.783459 16.813483 -21.322215 -6.785179 -149.173918 -55.148646 171.475880 -10.911354 -15.177751 -30.569714 -11.104762 -9.044780 -0.829836 -21.595858 -30.632807 11.304571 148.677996 -71.886642 -170.016330 -16.629874 -28.168203 46.285392 -16.130554 -67.196532 7.701138 -40.765713 68.519769 -42.551828 27.224514 34.891348 18.433464 -0.009406 -0.005976 -0.004167 -11.446272 -57.070642 -10.744310 27.079478 77.002371 17.739137 0.681488 -1.113380 6.362738 0.002859 -0.002188 0.001267
-2.204694 125.982121 19.967552 -169.579924 -19.951270 -0.457244 -2.918104 23.259064 0.669631 -0.418377 3.400496 0.164817 -0.699314 5.512092 0.263020 -2.430453 19.504558 0.640950 -1.608814 9.382028 -1.256361 -1.405823 -15.786509 -1.029368 0.084862 -7.564310 0.732425 16.705811 -21.309450 -6.739220 -149.109816 -55.106078 171.460824 -11.067893 -15.185873 -30.276836 -11.115502 -9.117933 -0.845097 -21.527063 -30.636202 11.235199 148.965856 -71.899499 -170.278510 -16.691252 -28.247255 46.428272 -16.132662 -67.209339 7.725498 -40.825495 68.500130 -42.606104 27.206719 34.900275 18.435308 -0.015916 -0.006070 -0.007051 -11.436649 -57.079330 -10.744256 27.025555 76.998342 17.695033 0.692319 -1.103230 6.358221 0.003025 -0.002772 0.001340
-2.205173 125.982671 19.964619 -169.577252 -19.945901 -0.464776 -2.934904 23.274233 0.675219 -0.422165 3.397568 0.167112 -0.703866 5.516649 0.263871 -2.445214 19.510324 0.641587 -1.583914 9.355133 -1.320938 -1.351091 -15.811435 -1.147009 0.149605 -7.662697 0.678055 16.617131 -21.294713 -6.707683 -149.088259 -55.074009 171.475141 -11.219158 -15.210347 -30.002935 -11.138255 -9.212991 -0.851752 -21.453881 -30.618544 11.178221 149.257231 -71.896622 -170.539673 -16.741092 -28.343049 46.564110 -16.188492 -67.219264 7.788992 -40.872265 68.484235 -42.662562 27.267474 34.914785 18.472808 -0.004596 -0.000964 -0.002036 -11.451930 -57.090643 -10.740464 26.967460 76.995252 17.648510 0.716286 -1.088521 6.350350 0.001005 -0.005390 0.000445
-2.205313 125.983091 19.961288 -169.592958 -19.941268 -0.467922 -2.924981 23.288467 0.684462 -0.435225 3.403330 0.168974 -0.710364 5.552737 0.268039 -2.442220 19.492433 0.640930 -1.561145 9.352402 -1.452108 -1.329659 -15.855291 -1.195526 0.203468 -7.781550 0.626304 16.562347 -21.280859 -6.693027 -149.109378 -55.056192 171.506546 -11.385262 -15.245569 -29.723081 -11.188280 -9.322889 -0.846682 -21.368874 -30.572255 11.140107 149.553629 -71.862952 -170.805554 -16.794212 -28.465701 46.703860 -16.242231 -67.228200 7.872466 -40.919769 68.468821 -42.724657 27.282187 34.927675 18.484761 0.000846 0.001976 0.000375 -11.463146 -57.099140 -10.720185 26.893547 76.993846 17.578582 0.737430 -1.077761 6.343224 0.001349 -0.006664 0.000598
-2.207275 125.982935 19.959024 -169.595492 -19.928861 -0.463328 -2.925535 23.282680 0.681510 -0.440287 3.428164 0.172167 -0.705278 5.561823 0.261284 -2.437221 19.549648 0.643862 -1.554621 9.289519 -1.511275 -1.314390 -15.871019 -1.257828 0.232251 -7.961072 0.590834 16.550009 -21.268464 -6.695055 -149.169822 -55.055296 171.544746 -11.571352 -15.278785 -29.424804 -11.230984 -9.450862 -0.818251 -21.345029 -30.576767 11.109174 149.910404 -71.858093 -171.122396 -16.861995 -28.620415 46.864600 -16.278531 -67.247766 7.912577 -40.936141 68.467079 -42.752839 27.281952 34.933574 18.493329 -0.003142 0.003689 -0.001392 -11.472025 -57.117021 -10.717978 26.825014 76.989761 17.512173 0.750908 -1.068402 6.341058 0.000861 -0.007355 0.000382
-2.207500 125.982648 19.956125 -169.611972 -19.914536 -0.464978 -2.914150 23.300459 0.682667 -0.438323 3.431591 0.172181 -0.697121 5.578435 0.258833 -2.421948 19.547289 0.646904 -1.559361 9.282389 -1.558188 -1.308840 -15.878841 -1.307356 0.249523 -8.098111 0.561518 16.575007 -21.255125 -6.712993 -149.258075 -55.066485 171.580772 -11.770425 -15.295529 -29.100319 -11.357245 -9.575980 -0.768322 -21.225973 -30.530369 11.053667 150.336421 -71.831142 -171.518224 -16.945946 -28.799374 47.073928 -16.318927 -67.264979 7.970059 -40.940281 68.465576 -42.764908 27.299852 34.954570 18.520821 -0.004759 0.011441 -0.002109 -11.480961 -57.133864 -10.695448 26.802237 76.987974 17.489233 0.751100 -1.063020 6.343770 -0.001190 -0.006228 -0.000527
-2.208629 125.981696 19.954712 -169.628275 -19.887782 -0.460380 -2.899666 23.334757 0.673759 -0.429612 3.409446 0.178839 -0.700977 5.560038 0.260579 -2.417214 19.570565 0.641382 -1.559386 9.260743 -1.573221 -1.307792 -15.880943 -1.329139 0.278580 -8.234890 0.529940 16.625134 -21.243023 -6.747799 -149.358515 -55.084411 171.609539 -11.968717 -15.294470 -28.755961 -11.483048 -9.696173 -0.704676 -21.149333 -30.482586 11.003814 150.938450 -71.801210 -172.049297 -17.043531 -28.980422 47.351143 -16.352020 -67.311310 8.007964 -40.949803 68.457095 -42.768746 27.365937 35.019942 18.551476 -0.001609 0.003202 -0.000713 -11.478523 -57.162114 -10.681819 26.772007 76.984300 17.460582 0.745339 -1.057224 6.349346 -0.002600 -0.004609 -0.001152
